<svg width="223" height="78" viewBox="0 0 223 78" fill="none" xmlns="http://www.w3.org/2000/svg">
<g clip-path="url(#clip0_950_3621)">
<path d="M0 0V53.0891L11.6498 35.2735V12.5956L35.7717 12.8276C35.7717 12.8276 47.6053 12.5376 54.5429 18.6566L61.4612 8.14897C61.4612 8.14897 52.9271 0.231999 39.2357 0.231999L0 0Z" fill="white"/>
<path d="M0 66.5548V78.0001H39.7098C45.9701 77.7874 51.2725 76.8304 53.7302 75.9314C85.9605 64.1188 73.6044 25.1816 73.6044 25.1816L63.1738 39.4592C63.1738 39.4592 67.0635 64.7761 36.8458 66.3711L0 66.5548Z" fill="white"/>
<path d="M27.1505 38.4152L33.7688 28.4875L30.2952 22.2332C29.3082 20.5222 26.8506 20.4546 25.7862 22.1172L0 61.6441L11.6498 61.6924L27.1408 38.4152H27.1505Z" fill="#4139FE"/>
<path d="M64.9057 11.6581L42.5544 44.3216L36.0135 32.5283L29.4146 42.4173L39.342 59.9719C40.2999 61.6346 43.2027 61.4992 44.3251 59.9332L71.5046 20.7931C70.3338 17.6707 67.3053 13.5914 64.9057 11.6484V11.6581Z" fill="#4139FE"/>
<path d="M95.0559 63.0168V16.0273H114.301C129.163 16.0273 137.852 22.6393 137.852 33.5723C137.852 44.5052 129.608 51.5329 115.046 51.5329H108.805V62.9491L95.0559 63.0168ZM108.805 27.8593V39.6912H114.679C120.842 39.6912 123.745 37.5356 123.745 33.5626C123.745 29.87 120.62 27.8496 114.679 27.8496H108.805V27.8593Z" fill="white"/>
<path d="M146.319 23.4706C148.177 17.69 153.373 14.9736 158.578 14.9736C163.784 14.9736 168.98 17.69 170.837 23.4706L183.764 63.0168H169.725L167.422 55.0805H149.812L147.432 63.0168H133.392L146.319 23.4706ZM153.227 43.5965H163.997L159.246 27.2309C159.101 26.7476 158.946 26.5349 158.656 26.5349C158.365 26.5349 158.21 26.7476 158.065 27.2309L153.237 43.5965H153.227Z" fill="white"/>
<path d="M174.108 16.0273H188.893L198.627 38.8599L208.215 16.0273H223L210.818 42.7652C209.551 45.4816 207.703 47.5695 205.545 48.9615V63.0265H191.795V49.0969C189.57 47.7049 187.635 45.6169 186.3 42.7652L174.118 16.0273H174.108Z" fill="white"/>
</g>
<defs>
<clipPath id="clip0_950_3621">
<rect width="223" height="78" fill="white"/>
</clipPath>
</defs>
</svg>
